<?xml version="1.0" standalone="no"?>
<!DOCTYPE svg PUBLIC "-//W3C//DTD SVG 20010904//EN"
 "http://www.w3.org/TR/2001/REC-SVG-20010904/DTD/svg10.dtd">
<svg version="1.0" xmlns="http://www.w3.org/2000/svg"
 width="768.000000pt" height="768.000000pt" viewBox="0 0 768.000000 768.000000"
 preserveAspectRatio="xMidYMid meet">
<metadata>
Created by potrace 1.15, written by Peter Selinger 2001-2017
</metadata>
<g transform="translate(0.000000,768.000000) scale(0.100000,-0.100000)"
fill="#000000" stroke="none">
<path d="M0 3840 l0 -3840 3840 0 3840 0 0 3840 0 3840 -3840 0 -3840 0 0
-3840z m6100 1050 l0 -450 -2255 0 -2255 0 0 450 0 450 2255 0 2255 0 0 -450z"/>
<path d="M2425 5073 c-62 -15 -63 -68 -2 -56 40 7 62 27 54 47 -6 16 -16 18
-52 9z"/>
<path d="M2275 5027 c-24 -18 -11 -37 24 -37 35 0 43 8 30 31 -12 22 -28 24
-54 6z"/>
<path d="M3745 4988 c-3 -8 -4 -90 -3 -183 3 -162 4 -170 23 -170 18 0 20 8
25 92 6 102 22 133 70 133 44 0 55 -23 60 -129 4 -81 8 -96 23 -99 15 -3 17 7
17 106 0 101 -2 110 -24 131 -25 24 -72 31 -118 18 -27 -7 -27 -7 -30 50 -2
46 -7 59 -21 61 -9 2 -19 -3 -22 -10z"/>
<path d="M4542 4818 c3 -155 5 -183 18 -183 10 0 17 14 21 48 8 74 25 76 77 6
27 -36 51 -59 63 -59 29 0 23 16 -26 80 -25 32 -45 65 -45 72 0 8 18 32 40 53
45 44 49 55 21 55 -11 0 -44 -26 -75 -57 l-56 -58 0 113 c0 106 -1 112 -20
112 -20 0 -20 -5 -18 -182z"/>
<path d="M2800 4856 c0 -181 28 -226 139 -226 44 0 56 5 89 34 l37 34 3 141
c4 135 3 141 -16 141 -28 0 -32 -17 -32 -146 0 -109 -1 -116 -25 -139 -30 -31
-82 -33 -118 -4 -26 20 -26 23 -29 152 -3 128 -4 132 -25 135 -23 3 -23 2 -23
-122z"/>
<path d="M3150 4804 l0 -175 23 3 c20 3 22 9 25 71 l3 67 32 0 c29 -1 36 -8
72 -68 28 -46 47 -68 63 -70 12 -2 22 0 22 3 0 4 -19 38 -42 77 l-41 70 26 24
c33 30 45 89 26 123 -21 38 -56 51 -136 51 l-73 0 0 -176z m148 120 c26 -18
30 -65 6 -88 -9 -10 -33 -16 -60 -16 l-44 0 0 60 0 60 38 0 c21 0 48 -7 60
-16z"/>
<path d="M3492 4943 c-60 -58 -75 -130 -46 -217 22 -64 72 -96 148 -96 67 0
86 7 86 30 0 16 -6 18 -52 13 -29 -3 -65 0 -80 6 -87 33 -91 203 -7 247 24 12
47 15 86 11 43 -5 55 -3 60 10 9 23 -16 33 -89 33 -64 0 -69 -2 -106 -37z"/>
<path d="M4091 4888 c-87 -46 -93 -201 -10 -243 28 -15 104 -20 133 -9 9 3 16
14 16 24 0 16 -7 17 -58 13 -55 -5 -60 -4 -80 22 -39 49 -31 55 63 55 96 0
104 6 86 63 -22 67 -96 104 -150 75z m75 -36 c11 -7 34 -45 34 -56 0 -3 -30
-6 -66 -6 -63 0 -65 1 -58 22 12 40 60 61 90 40z"/>
<path d="M4375 4893 c-37 -9 -74 -54 -81 -99 -9 -59 3 -99 38 -134 24 -24 38
-30 73 -30 55 0 75 8 75 30 0 14 -7 16 -48 12 -44 -4 -51 -2 -71 24 -19 24
-22 38 -18 78 6 64 33 89 91 84 31 -2 41 1 44 13 4 24 -48 35 -103 22z"/>
<path d="M2254 4763 c-9 -21 -22 -49 -28 -62 -9 -19 -7 -25 9 -37 16 -12 17
-14 2 -14 -9 0 -17 5 -17 10 0 15 -56 -16 -64 -35 -20 -53 12 -105 64 -105 39
0 80 39 80 76 0 23 2 25 16 13 10 -8 12 -15 5 -17 -6 -2 -9 -8 -5 -13 3 -5 61
-9 128 -9 101 0 126 -3 137 -16 53 -64 144 -12 110 62 -9 21 -17 25 -44 22
-22 -2 -35 -10 -42 -25 -9 -22 -15 -23 -133 -23 -108 0 -123 2 -128 18 -3 9
-13 35 -22 56 -9 22 -17 60 -17 85 -2 62 -28 69 -51 14z m36 -113 c0 -5 -2
-10 -4 -10 -3 0 -8 5 -11 10 -3 6 -1 10 4 10 6 0 11 -4 11 -10z m-80 -40 c0
-5 -4 -10 -10 -10 -5 0 -10 5 -10 10 0 6 5 10 10 10 6 0 10 -4 10 -10z m50
-20 c0 -5 -4 -10 -10 -10 -5 0 -10 5 -10 10 0 6 5 10 10 10 6 0 10 -4 10 -10z
m-23 -26 c-3 -3 -12 -4 -19 -1 -8 3 -5 6 6 6 11 1 17 -2 13 -5z"/>
</g>
</svg>
