<svg width="90" height="22" viewBox="0 0 90 22" fill="none" xmlns="http://www.w3.org/2000/svg">
<rect width="90" height="22" rx="11" fill="url(#paint0_linear_112_2768)"/>
<path d="M16.2706 12.4183C15.6806 12.5756 15.2086 12.5035 14.8874 12.1495L12.593 9.56667C12.4618 9.429 12.4684 9.24545 12.6192 9.10778L12.8158 8.93078C12.9994 8.76034 13.1698 8.72756 13.3731 8.79312L16.5066 9.90755L18.5978 9.193L15.3069 5.69237C15.143 5.51537 15.202 5.29249 15.3921 5.23349L15.8445 5.08927C16.0346 5.03682 16.2444 5.04993 16.4345 5.14171L21.9149 7.72457C22.2295 7.87535 22.4196 7.88191 22.6884 7.79013L26.6479 6.4397C27.8148 6.03981 29.0997 6.28237 29.4274 7.14769C29.7749 8.10479 28.8309 9.06845 27.5264 9.41589L16.2706 12.4183ZM13.8188 16.9416C13.4714 16.9416 13.1764 16.6532 13.1764 16.2992C13.1764 15.9452 13.4714 15.6567 13.8188 15.6567H28.0246C28.3786 15.6567 28.667 15.9452 28.667 16.2992C28.667 16.6532 28.3786 16.9416 28.0246 16.9416H13.8188Z" fill="white"/>
<path d="M37.4023 15V8.00391H34.959V6.54492H41.6211V8.00391H39.1719V15H37.4023ZM42.5996 15V6.54492H48.1367V8.00391H44.3691V10.2715H47.8086V11.6719H44.3691V15H42.5996ZM49.1855 15V6.54492H50.9551V13.541H54.6523V15H49.1855ZM56.4453 7.91016C55.9297 7.91016 55.5312 7.50586 55.5312 7.01953C55.5312 6.5332 55.9297 6.12891 56.4453 6.12891C56.9609 6.12891 57.3594 6.5332 57.3594 7.01953C57.3594 7.50586 56.9609 7.91016 56.4453 7.91016ZM55.5898 15V8.71875H57.3008V15H55.5898ZM58.4492 15V8.71875H60.1602V9.75H60.1953C60.5176 9.0293 61.1621 8.58984 62.1113 8.58984C63.4941 8.58984 64.2793 9.47461 64.2793 10.9453V15H62.5684V11.2969C62.5684 10.4766 62.1816 10.0078 61.4141 10.0078C60.6465 10.0078 60.1602 10.5703 60.1602 11.3906V15H58.4492ZM65.4219 15V6.54492H67.1328V11.2324H67.168L69.2891 8.71875H71.2285L68.8555 11.4199L71.3457 15H69.3711L67.5723 12.4336L67.1328 12.9199V15H65.4219ZM74.2871 15.1289C72.5469 15.1289 71.5801 14.3262 71.4453 13.1367L71.4395 13.084H73.1094L73.1211 13.1367C73.2324 13.6289 73.6016 13.916 74.2871 13.916C74.9316 13.916 75.3242 13.6641 75.3242 13.2598V13.2539C75.3242 12.9199 75.1133 12.7266 74.498 12.5918L73.4316 12.3691C72.2129 12.1113 71.5977 11.502 71.5977 10.5645V10.5586C71.5977 9.36328 72.6289 8.58984 74.2285 8.58984C75.8984 8.58984 76.8301 9.47461 76.8711 10.5762V10.6348H75.2949L75.2891 10.5879C75.2305 10.1367 74.8613 9.79688 74.2285 9.79688C73.6367 9.79688 73.2676 10.0605 73.2676 10.4648V10.4707C73.2676 10.793 73.4844 11.0039 74.1172 11.1387L75.1836 11.3672C76.4961 11.6426 77.0352 12.1582 77.0352 13.084V13.0898C77.0352 14.3203 75.9043 15.1289 74.2871 15.1289Z" fill="white"/>
<defs>
<linearGradient id="paint0_linear_112_2768" x1="0" y1="0" x2="10.1491" y2="41.5191" gradientUnits="userSpaceOnUse">
<stop stop-color="#02C9F2"/>
<stop offset="1" stop-color="#2740DA"/>
</linearGradient>
</defs>
</svg>
